<?xml version="1.0" encoding="UTF-8" standalone="no"?>
<!DOCTYPE svg PUBLIC "-//W3C//DTD SVG 1.1//EN" "http://www.w3.org/Graphics/SVG/1.1/DTD/svg11.dtd">
<svg xmlns:xl="http://www.w3.org/1999/xlink" xmlns="http://www.w3.org/2000/svg" xmlns:dc="http://purl.org/dc/elements/1.1/" version="1.1" viewBox="-5 -10 110 135" width="110" height="135">
  <defs/>
  <g id="Canvas_1" stroke-dasharray="none" fill-opacity="1" stroke="none" stroke-opacity="1" fill="none">
    <title>Canvas 1</title>
    <rect fill="white" x="-5" y="-10" width="110" height="135"/>
    <g id="Canvas_1_Layer_1">
      <title>Layer 1</title>
      <g id="Graphic_2">
        <path d="M 40.75 75.102 L 28.602 75.102 C 26.6762 75.102 24.9262 74.31294 23.6567 73.0473 C 22.3911 71.7778 21.602 70.0239 21.602 68.102 C 21.602 58.7153 21.27778 48.868 21.609813 39.528 C 18.078613 35.7702 15.910613 30.7077 15.910613 25.141 C 15.910613 19.3402 18.262213 14.086 22.062913 10.286 C 26.012113 6.3368 31.336313 4.1337 36.917913 4.1337 C 42.503813 4.1337 47.823913 6.3368 51.77291 10.286 C 55.08541 13.5985 57.30021 18.0204 57.81201 22.946 L 67.07371 22.946 C 71.74951 22.946 76.00341 24.8601 79.08171 27.9382 C 82.16001 31.0163 84.07391 35.2702 84.07391 39.9462 L 84.07391 68.1062 C 84.07391 70.032 83.28485 71.782 82.01921 73.0515 C 80.75361 74.3171 78.99971 75.1062 77.07391 75.1062 L 64.92891 75.1062 C 64.13203 81.7351 63.33511 88.3602 62.54221 94.9892 C 62.47971 95.53608 61.97971 95.9267 61.43281 95.8642 C 60.88591 95.8017 60.49531 95.3017 60.55781 94.7548 L 61.73361 84.9736 L 56.93281 84.9736 L 55.72971 94.9896 C 55.66721 95.53648 55.16721 95.9271 54.62031 95.8646 C 54.07341 95.8021 53.68281 95.3021 53.74531 94.7552 L 54.92111 84.974 L 50.75311 84.974 L 51.92891 94.7552 C 51.99141 95.30208 51.60078 95.8021 51.05391 95.8646 C 50.50703 95.9271 50.007013 95.53648 49.944513 94.9896 L 48.741413 84.9736 L 43.940613 84.9736 L 45.116413 94.7548 C 45.178913 95.30168 44.788283 95.8017 44.241413 95.8642 C 43.694533 95.9267 43.194513 95.53608 43.132013 94.9892 C 42.339043 88.3603 41.538213 81.7352 40.745313 75.1062 Z M 23.551 41.348 C 23.31662 50.1136 23.605688 59.356 23.605688 68.102 C 23.605688 69.477 24.168188 70.7309 25.070488 71.6293 C 25.980648 72.53555 27.230688 73.0981 28.605688 73.0981 L 29.890888 73.0981 L 29.890888 44.9421 C 27.558888 44.11398 25.422088 42.8874 23.551088 41.3444 Z M 31.8908 45.5472 L 31.8908 73.1022 L 40.5119 73.1022 C 40.05096 69.2584 39.59002 65.4147 39.1252 61.5712 L 36.3752 61.5712 L 36.3752 59.5712 L 69.3162 59.5712 L 69.3162 61.5712 L 66.5662 61.5712 C 66.10526 65.415 65.64042 69.2587 65.1795 73.1022 L 73.7967 73.1022 L 73.7967 39.5042 C 73.7967 38.68389 73.45686 37.9339 72.91389 37.3909 C 72.37483 36.84793 71.62089 36.51199 70.79669 36.51199 L 60.42969 36.51199 C 59.87891 36.51199 59.42969 36.06277 59.42969 35.51199 C 59.42969 34.96121 59.87891 34.51199 60.42969 34.51199 L 70.79669 34.51199 C 72.16779 34.51199 73.42169 35.07449 74.32399 35.97679 C 75.23415 36.87913 75.79669 38.12909 75.79669 39.50409 L 75.79669 73.10209 L 77.08189 73.10209 C 78.45299 73.10209 79.70689 72.53959 80.60919 71.63329 C 81.51544 70.72704 82.07799 69.47709 82.07799 68.10599 L 82.07799 39.94599 C 82.07799 35.82099 80.39049 32.07099 77.67179 29.35199 C 74.95309 26.63299 71.20299 24.94579 67.07779 24.94579 L 57.92939 24.94579 L 57.92939 25.1411 C 57.92939 30.9458 55.57779 36.1961 51.77709 39.9961 C 47.97629 43.7969 42.72239 46.1484 36.92209 46.1484 C 35.18769 46.1484 33.50019 45.93746 31.88689 45.53902 Z M 55.9108 26.1412 L 47.1256 26.1412 C 47.32872 27.9185 48.07482 29.5318 49.1881 30.8131 C 50.4069 32.2154 52.0709 33.2193 53.9537 33.6061 C 55.0826 31.3366 55.774 28.8092 55.9107 26.1373 Z M 52.9264 35.4146 C 50.86 34.85601 49.0397 33.6919 47.6803 32.1294 C 46.2584 30.4966 45.3248 28.4224 45.1139 26.145 L 37.9264 26.145 L 37.9264 44.133 C 42.778 43.883 47.1491 41.8127 50.3674 38.59 C 51.32834 37.62906 52.1877 36.5627 52.926 35.4142 Z M 35.9264 44.1294 L 35.9264 26.1414 L 28.7389 26.1414 C 28.52796 28.4226 27.5944 30.493 26.1725 32.1297 C 24.8092 33.6961 22.9928 34.8602 20.9264 35.4149 C 21.66468 36.5633 22.5202 37.6258 23.485 38.5868 C 26.7038 41.8056 31.0748 43.8759 35.926 44.1298 Z M 19.9034 33.6094 C 21.7862 33.22268 23.4503 32.2149 24.669 30.8164 C 25.7823 29.5352 26.5284 27.9219 26.7315 26.1445 L 17.9463 26.1445 C 18.08302 28.8164 18.77443 31.3437 19.9033 33.6133 Z M 17.9464 24.1524 L 26.7316 24.1524 C 26.52848 22.3712 25.78629 20.754 24.6691 19.4727 C 23.4503 18.0704 21.7863 17.0665 19.9035 16.6797 C 18.7707 18.9492 18.0832 21.4805 17.9426 24.1524 Z M 20.9308 14.8751 C 22.9972 15.43369 24.8136 16.5978 26.1769 18.1603 C 27.5988 19.7931 28.5324 21.8712 28.7433 24.1525 L 35.9308 24.1525 L 35.9308 6.1645 C 31.0792 6.4145 26.7081 8.4848 23.4898 11.7075 C 22.52886 12.66844 21.6734 13.7309 20.9351 14.8794 Z M 37.9308 6.1642 L 37.9308 24.1522 L 45.1183 24.1522 C 45.32924 21.871 46.2628 19.7967 47.6847 18.1639 C 49.048 16.6014 50.8644 15.4373 52.9308 14.8787 C 52.19252 13.7303 51.3331 12.6678 50.3722 11.7068 C 47.1534 8.488 42.7824 6.4177 37.9312 6.1638 Z M 53.9538 16.6842 C 52.071 17.07092 50.4069 18.0787 49.1882 19.4811 C 48.0749 20.7584 47.3288 22.3756 47.1257 24.1569 L 55.9109 24.1569 C 55.77418 21.485 55.08278 18.9577 53.9539 16.6881 Z M 61.985 82.9772 L 63.2467 72.4812 L 58.4459 72.4812 L 57.1842 82.9772 Z M 55.1725 82.9772 L 56.4342 72.4812 L 49.2623 72.4812 L 50.524 82.9772 Z M 48.5123 82.9772 L 47.2506 72.4812 L 42.4498 72.4812 L 43.7115 82.9772 Z M 63.4893 70.4772 L 64.5596 61.5788 L 59.7588 61.5788 L 58.6885 70.4772 Z M 56.6768 70.4772 L 57.7471 61.5788 L 47.958 61.5788 L 49.0283 70.4772 L 56.6806 70.4772 Z M 47.0127 70.4772 L 45.9424 61.5788 L 41.1416 61.5788 L 42.2119 70.4772 Z M 57.3917 36.5202 C 56.84092 36.5202 56.3917 36.07098 56.3917 35.5202 C 56.3917 34.96942 56.84092 34.5202 57.3917 34.5202 L 57.46592 34.5202 C 58.0167 34.5202 58.46592 34.96942 58.46592 35.5202 C 58.46592 36.07098 58.0167 36.5202 57.46592 36.5202 Z" fill="black"/>
      </g>
    </g>
  </g>
</svg>
