<?xml version="1.0" encoding="UTF-8"?>
<svg id="visual" xmlns="http://www.w3.org/2000/svg" viewBox="0 0 960 541">
  <defs>
    <style>
      .cls-1 {
        fill: #02154e;
      }

      .cls-2 {
        fill: #013168;
      }

      .cls-3 {
        fill: #09218a;
      }

      .cls-4 {
        fill: #232e7a;
      }

      .cls-5 {
        fill: #0e76d6;
      }
    </style>
  </defs>
  <path class="cls-5" d="M0,104l87,54,88-33,87,6,87,32h87l88,5,87,6,87-38,87-32,88,21,87,22V0H0V104Z"/>
  <path class="cls-3" d="M0,185l87,10,88,17,87,5,87-11,87,33,88-6,87-11,87-37,87-38,88,43h87v-45l-87-22-88-21-87,32-87,38-87-6-88-5h-87l-87-32-87-6-88,33L0,102v83Z"/>
  <path class="cls-2" d="M0,228l87,21,88,38,87,22,87-6,87,33,88-38,87-16,87-22,87-5,88,32,87-32v-67h-87l-88-43-87,38-87,37-87,11-88,6-87-33-87,11-87-5-88-17L0,183v45Z"/>
  <path class="cls-4" d="M0,357l87,38,88-48,87,21,87,60,87,21,88-86,87,27,87-38,87,27,88-11,87,33V253l-87,32-88-32-87,5-87,22-87,16-88,38-87-33-87,6-87-22-88-38L0,226v131Z"/>
  <path class="cls-1" d="M0,541H960v-142l-87-33-88,11-87-27-87,38-87-27-88,86-87-21-87-60-87-21-88,48L0,355v186Z"/>
</svg>